HIERARCHY
ROOT SpineBase
{
  OFFSET 0.000000 0.000000 0.000000
  CHANNELS 6 Xposition Yposition Zposition Zrotation Xrotation Yrotation
  JOINT SpineMid
  {
    OFFSET 0.000000 26.450592 0.000000
    CHANNELS 3 Zrotation Xrotation Yrotation
    JOINT SpineShoulder
    {
      OFFSET -0.138000 19.656265 -0.766409
      CHANNELS 3 Zrotation Xrotation Yrotation
      JOINT Neck
      {
        OFFSET -0.081345 6.523902 -0.584469
        CHANNELS 3 Zrotation Xrotation Yrotation
        JOINT Head
        {
          OFFSET 2.263553 12.015313 0.381081
          CHANNELS 3 Zrotation Xrotation Yrotation
          End Site
          {
            OFFSET 0 0 0
          }
        }
      }
      JOINT ShoulderLeft
      {
        OFFSET -11.632228 -1.040302 -4.993509
        CHANNELS 3 Zrotation Xrotation Yrotation
        JOINT ElbowLeft
        {
          OFFSET -16.394244 -12.670092 1.610422
          CHANNELS 3 Zrotation Xrotation Yrotation
          JOINT WristLeft
          {
            OFFSET 3.126257 -17.694056 -4.250441
            CHANNELS 3 Zrotation Xrotation Yrotation
            JOINT HandLeft
            {
              OFFSET 3.668273 -6.027073 -1.293323
              CHANNELS 3 Zrotation Xrotation Yrotation
              JOINT HandTipLeft
              {
                OFFSET 3.237585 -5.519806 -2.678491
                CHANNELS 3 Zrotation Xrotation Yrotation
                End Site
                {
                  OFFSET 0 0 0
                }
              }
              JOINT ThumbLeft
              {
                OFFSET 4.219900 3.631561 -0.511762
                CHANNELS 3 Zrotation Xrotation Yrotation
                End Site
                {
                  OFFSET 0 0 0
                }
              }
            }
          }
        }
      }
      JOINT ShoulderRight
      {
        OFFSET 11.951489 -0.524149 3.311123
        CHANNELS 3 Zrotation Xrotation Yrotation
        JOINT ElbowRight
        {
          OFFSET 2.177049 -18.633203 7.501077
          CHANNELS 3 Zrotation Xrotation Yrotation
          JOINT WristRight
          {
            OFFSET 1.978856 -18.818001 -9.875794
            CHANNELS 3 Zrotation Xrotation Yrotation
            JOINT HandRight
            {
              OFFSET -2.100737 -5.119538 -1.300582
              CHANNELS 3 Zrotation Xrotation Yrotation
              JOINT HandTipRight
              {
                OFFSET -1.633510 -3.948612 -1.766216
                CHANNELS 3 Zrotation Xrotation Yrotation
                End Site
                {
                  OFFSET 0 0 0
                }
              }
              JOINT ThumbRight
              {
                OFFSET 2.594945 0.250909 -2.505496
                CHANNELS 3 Zrotation Xrotation Yrotation
                End Site
                {
                  OFFSET 0 0 0
                }
              }
            }
          }
        }
      }
    }
  }
  JOINT HipLeft
  {
    OFFSET -5.336589 1.257030 -4.538236
    CHANNELS 3 Zrotation Xrotation Yrotation
    JOINT KneeLeft
    {
      OFFSET -3.423704 -30.392922 -5.290727
      CHANNELS 3 Zrotation Xrotation Yrotation
      JOINT AnkleLeft
      {
        OFFSET -2.009294 -32.160772 3.128168
        CHANNELS 3 Zrotation Xrotation Yrotation
        JOINT FootLeft
        {
          OFFSET 3.271211 -4.370513 -5.072953
          CHANNELS 3 Zrotation Xrotation Yrotation
          End Site
          {
            OFFSET 0 0 0
          }
        }
      }
    }
  }
  JOINT HipRight
  {
    OFFSET 4.962173 0.651837 -1.508702
    CHANNELS 3 Zrotation Xrotation Yrotation
    JOINT KneeRight
    {
      OFFSET 1.276491 -28.313171 0.548421
      CHANNELS 3 Zrotation Xrotation Yrotation
      JOINT AnkleRight
      {
        OFFSET -2.165194 -36.565705 3.659792
        CHANNELS 3 Zrotation Xrotation Yrotation
        JOINT FootRight
        {
          OFFSET -0.683138 -3.660664 -6.948052
          CHANNELS 3 Zrotation Xrotation Yrotation
          End Site
          {
            OFFSET 0 0 0
          }
        }
      }
    }
  }
}
MOTION
Frames: 5
Frame Time: 0.033333
23.034135 69.846860 359.623226 5.514534 3.420770 -27.009302 -1.237089 0.633972 26.988037 0.140766 0.904094 0.254837 -1.868295 0.841265 -1.895845 0.000000 0.000000 0.000000 38.464118 2.462293 -9.102948 -42.400536 -7.095575 5.323459 -22.610681 -14.066628 -5.911699 0.275410 5.410823 11.372445 0.000000 0.000000 0.000000 0.000000 0.000000 0.000000 44.055754 21.123066 17.039721 -22.752841 65.874976 -32.888764 6.557993 14.340765 -41.440068 33.042177 18.434518 12.464649 0.000000 0.000000 0.000000 0.000000 0.000000 0.000000 -4.560692 -10.670520 27.557474 4.115854 2.252912 -1.021994 1.953963 4.950688 -0.961409 0.000000 0.000000 0.000000 -4.584367 -8.852495 26.370865 2.562375 1.412125 0.165877 16.608483 13.486912 -29.978378 0.000000 0.000000 0.000000
22.883261 69.894056 359.503528 5.294469 3.726863 -27.012107 -1.069126 0.782845 26.990586 0.025286 0.927507 0.242098 -1.506721 0.481960 -1.883817 0.000000 0.000000 0.000000 38.518899 2.092775 -8.546626 -42.634040 -7.204072 5.128393 -20.258489 -11.590080 -3.818339 -2.348123 2.036860 9.621664 0.000000 0.000000 0.000000 0.000000 0.000000 0.000000 44.187475 20.252235 17.559559 -23.043660 66.326336 -32.606859 4.624282 16.534311 -42.416312 34.023821 25.279401 11.416942 0.000000 0.000000 0.000000 0.000000 0.000000 0.000000 -3.734187 -11.028372 27.613388 3.821427 2.712171 -1.011449 1.866649 3.983339 -1.546596 0.000000 0.000000 0.000000 -3.848573 -9.101619 26.420151 2.212876 1.546419 0.177349 14.531043 16.573053 -26.145876 0.000000 0.000000 0.000000
22.850885 69.936361 359.425084 5.279407 3.990688 -27.114513 -0.992180 0.873841 27.088032 -0.063613 0.924490 0.236797 -1.535498 0.140253 -1.877173 0.000000 0.000000 0.000000 37.812021 1.681857 -7.841345 -42.776880 -6.847100 4.984885 -14.721795 -8.065294 -1.300562 -6.004873 0.704865 8.783807 0.000000 0.000000 0.000000 0.000000 0.000000 0.000000 44.779195 19.265079 18.234015 -23.486746 67.960005 -32.667572 4.499273 17.260457 -42.820279 30.877671 23.246344 12.113046 0.000000 0.000000 0.000000 0.000000 0.000000 0.000000 -3.319068 -11.376477 27.736574 3.561902 3.023707 -1.015614 3.100248 7.316438 -0.482403 0.000000 0.000000 0.000000 -3.514333 -9.409337 26.529781 2.030524 1.600963 0.184286 14.205437 20.300528 -25.200135 0.000000 0.000000 0.000000
22.852455 69.943554 359.373143 5.322899 4.232376 -27.089065 -0.899086 0.914823 27.059233 -0.107258 0.883744 0.239719 -1.876857 -0.010809 -1.905314 0.000000 0.000000 0.000000 36.681009 1.341753 -7.291952 -41.613807 -5.878844 4.950195 -9.550629 -4.585835 1.015040 -9.126202 -1.789461 6.056300 0.000000 0.000000 0.000000 0.000000 0.000000 0.000000 45.747144 18.077088 19.049508 -24.141208 70.073646 -32.889646 5.171056 17.737437 -42.985200 32.889674 22.897719 13.036567 0.000000 0.000000 0.000000 0.000000 0.000000 0.000000 -3.208326 -11.582156 27.691417 3.448734 2.979344 -1.002304 5.075895 14.574601 1.883023 0.000000 0.000000 0.000000 -3.406385 -9.725642 26.487774 1.992984 1.621549 0.189020 14.633284 17.592320 -26.105798 0.000000 0.000000 0.000000
22.823032 69.939418 359.328652 5.328382 4.460492 -27.043736 -0.760357 0.880388 27.014784 -0.089027 0.819589 0.249587 -2.323763 -0.060296 -1.935048 0.000000 0.000000 0.000000 35.671102 1.230422 -7.272312 -39.534866 -4.741343 5.119105 -6.836953 -1.914733 2.930218 -10.018391 -4.383838 2.563085 0.000000 0.000000 0.000000 0.000000 0.000000 0.000000 46.403930 17.251424 19.592161 -24.666599 72.043324 -32.941181 6.080916 16.903847 -42.752708 31.127721 23.377413 12.276201 0.000000 0.000000 0.000000 0.000000 0.000000 0.000000 -3.194213 -11.544583 27.586604 3.282413 2.651921 -0.954016 6.712048 27.499285 7.099427 0.000000 0.000000 0.000000 -3.240997 -9.977111 26.437221 1.899445 1.679676 0.189829 14.738203 17.614765 -26.199075 0.000000 0.000000 0.000000
